<svg xmlns="http://www.w3.org/2000/svg" viewBox="0 0 373 271" xml:space="preserve"><path d="M374 93v179H1V1h373v92m-55.612 74c3.078-.732 7.8 2.266 8.576-3.685.446-3.415.58-6.872 1.06-10.282 1.207-8.569 2.642-17.106 3.773-25.684.956-7.257 1.614-14.553 2.466-22.408h-75.689l3.73-29.08h91.324l7.778-61.61H200.18l-1.603 10.23c-.472-.155-.995-.21-1.379-.471-14.654-9.933-31.426-13.57-48.543-14.802-18.247-1.314-36.321.384-53.899 6.65-23.36 8.327-39.198 24.624-50.034 46.067-8.855 17.524-13.575 36.467-16.85 55.826-3.516 20.792-6.285 41.569-6 62.747.189 13.936 2.527 27.327 7.199 40.342 4.597 12.808 13.01 23.204 23.791 30.91 15.92 11.38 34.843 14.19 53.918 15.137 7.23.36 14.617.064 21.762-1.04 9.44-1.458 18.777-3.753 28.025-6.194 4.193-1.108 8.065-3.434 11.895-5.125l-.557 8.223h69.869l12.483-95.752h68.13z"/><path fill="#94DD26" d="M317.903 167h-67.645l-12.483 95.75h-69.87c.193-2.827.366-5.38.558-8.222-3.83 1.69-7.702 4.017-11.895 5.125-9.248 2.441-18.586 4.736-28.025 6.194-7.145 1.104-14.533 1.4-21.762 1.04-19.075-.947-37.998-3.756-53.918-15.136-10.781-7.707-19.194-18.103-23.791-30.911-4.672-13.015-7.01-26.406-7.198-40.342-.286-21.178 2.483-41.955 6-62.747 3.274-19.359 7.994-38.302 16.85-55.826 10.835-21.443 26.673-37.74 50.033-46.067 17.578-6.266 35.652-7.964 53.899-6.65 17.117 1.232 33.89 4.87 48.543 14.802.384.26.907.316 1.379.472l1.603-10.231h161.225l-7.778 61.61h-91.323l-3.731 29.08h75.69c-.853 7.855-1.511 15.15-2.467 22.408-1.131 8.578-2.566 17.115-3.773 25.684-.48 3.41-.614 6.867-1.06 10.282-.776 5.95-5.498 2.953-9.06 3.684M194.5 38.001c-4.313-2.92-8.342-6.438-12.993-8.649-13.235-6.29-27.65-7.888-42.01-8.133-9.43-.16-19.002 1.205-28.324 2.91-17.835 3.262-33.15 11.836-44.476 25.955-11.664 14.54-18.198 31.88-22.565 49.845-2.726 11.215-4.417 22.705-6.135 34.137-1.63 10.838-3.464 21.74-3.78 32.654-.319 10.992.437 22.131 1.966 33.03 1.807 12.879 6.455 24.94 15.7 34.573 12.989 13.536 29.694 18.673 47.77 19.527 10.43.493 20.943-.292 31.395-.907 11.892-.7 22.946-4.663 33.344-10.237 2.643-1.416 5.915-4.182 6.357-6.763 2.508-14.645 4.276-29.419 6.223-44.159.502-3.8.74-7.634 1.094-11.41h-24.314c-1.015 3.79-1.73 7.132-2.807 10.352-3.327 9.943-8.68 18.391-18.51 23.07-8.162 3.884-17.02 4.1-25.644 2.907-10.48-1.45-18.928-7.073-22.403-17.348-2.47-7.304-3.868-15.234-4.156-22.945-.33-8.824.586-17.788 1.867-26.559 2.661-18.217 5.2-36.507 9.19-54.456 2.589-11.637 8.172-22.333 18.44-29.767 9.779-7.078 21.007-7.542 32.1-6.342 9.027.978 17.13 6.302 19.542 15.143 2.626 9.62 2.455 20.004 3.558 30.57 5.375 0 12.194-.225 18.989.084 4.155.189 5.012-1.799 5.132-5.296.135-3.935.536-7.873 1.038-11.782 2.001-15.562 4.112-31.111 6.075-46.679.11-.873-.744-1.869-1.663-3.325M309.47 117h-64.98l6.94-53.145h91.22l4.703-37.607H211.886c-4.312 7.332-.465 12.794 3.167 18.38 1.226 1.885 2.161 4.006 2.94 6.125 8.025 21.804 5.318 43.856 1.722 66.407h-20.632l-6.57 50.965h20.84c-1.513 9.235-2.725 17.96-4.4 26.593-3.526 18.167-11.186 34.368-24.086 47.795-2.454 2.554-3.568 4.874-2.465 8.175h44.435L239.315 155h71.841c2.354 0 4.563.32 4.916-3.263.737-7.478 1.968-14.906 2.888-22.368.491-3.983.757-7.993 1.16-12.37h-10.65m-172.528 74.305 7.087-23.428h35.894l6.718-51.091h-36.268c.561-9.501 1.369-18.516 1.555-27.544.218-10.519-3.495-15.266-13.705-17.537-13.552-3.015-25.936 4.14-31.12 16.436-5.859 13.9-8.099 28.675-10.364 43.545-2.567 16.844-4.32 33.644-3.676 50.646.278 7.32 1.75 15.033 8.223 19.106 10.333 6.5 29.432 4.747 35.656-10.133M203.986 81.31l-3.252 23.458h8.299c2.023-15.231 3.932-30.216-2.38-45.096-.885 6.91-1.77 13.82-2.667 21.638m-6.757 98.706h-6.346L185.773 219l2.194.555c3.013-9.277 6.251-18.491 8.93-27.865 1.05-3.679.849-7.715.332-11.674z"/><path d="M194.757 38.26c.662 1.197 1.516 2.193 1.406 3.066-1.963 15.568-4.074 31.117-6.075 46.68-.502 3.908-.903 7.846-1.038 11.781-.12 3.497-.977 5.485-5.132 5.296-6.795-.309-13.614-.083-18.99-.083-1.102-10.567-.93-20.95-3.557-30.571-2.413-8.84-10.515-14.165-19.543-15.143-11.092-1.2-22.32-.736-32.098 6.342-10.269 7.434-15.852 18.13-18.44 29.767-3.992 17.949-6.53 36.24-9.19 54.456-1.282 8.771-2.198 17.735-1.868 26.56.288 7.71 1.685 15.64 4.156 22.944 3.475 10.275 11.923 15.898 22.403 17.348 8.625 1.193 17.482.977 25.644-2.908 9.83-4.678 15.183-13.126 18.51-23.069 1.077-3.22 1.792-6.562 2.807-10.352h24.314c-.355 3.776-.592 7.61-1.094 11.41-1.947 14.74-3.715 29.514-6.223 44.16-.442 2.58-3.714 5.346-6.357 6.762-10.398 5.574-21.452 9.536-33.344 10.237-10.452.615-20.965 1.4-31.395.907-18.076-.854-34.781-5.99-47.77-19.527-9.245-9.634-13.893-21.694-15.7-34.572-1.53-10.9-2.285-22.039-1.966-33.03.316-10.916 2.15-21.817 3.78-32.655 1.718-11.432 3.41-22.922 6.135-34.137C48.5 81.964 55.033 64.624 66.697 50.084c11.326-14.12 26.641-22.693 44.476-25.955 9.322-1.705 18.894-3.07 28.325-2.91 14.36.245 28.774 1.843 42.01 8.133 4.65 2.21 8.679 5.729 13.249 8.908zM309.962 117h10.157c-.402 4.377-.668 8.387-1.159 12.37-.92 7.462-2.151 14.89-2.888 22.368-.353 3.582-2.562 3.263-4.916 3.263h-71.841l-12.478 95.686h-44.435c-1.103-3.301.011-5.621 2.465-8.175 12.9-13.427 20.56-29.628 24.086-47.795 1.675-8.634 2.887-17.358 4.4-26.593h-20.84l6.57-50.965h20.632c3.596-22.551 6.303-44.603-1.721-66.407-.78-2.119-1.715-4.24-2.94-6.124-3.633-5.587-7.48-11.049-3.168-18.38h135.467l-4.703 37.606h-91.22l-6.94 53.145h65.472z"/><path d="M136.743 191.63c-6.025 14.555-25.124 16.309-35.457 9.808-6.474-4.073-7.945-11.785-8.223-19.106-.644-17.002 1.11-33.802 3.676-50.646 2.265-14.87 4.505-29.644 10.365-43.545 5.183-12.296 17.567-19.451 31.12-16.436 10.209 2.27 13.922 7.018 13.704 17.537-.186 9.028-.994 18.043-1.555 27.544h36.268l-6.718 51.091H144.03c-2.436 8.052-4.762 15.74-7.286 23.754zm67.249-110.773c.89-7.364 1.776-14.275 2.66-21.185 6.313 14.88 4.404 29.865 2.38 45.096h-8.298c1.086-7.836 2.17-15.647 3.258-23.911zm-6.32 99.202c.074 3.916.275 7.952-.776 11.63-2.678 9.375-5.916 18.589-8.93 27.866l-2.192-.555 5.109-38.984c2.429 0 4.387 0 6.789.043z"/></svg>